<?xml version="1.0" encoding="UTF-8" standalone="no" ?>
<!DOCTYPE svg PUBLIC "-//W3C//DTD SVG 1.1//EN" "http://www.w3.org/Graphics/SVG/1.1/DTD/svg11.dtd">
<svg xmlns="http://www.w3.org/2000/svg" xmlns:xlink="http://www.w3.org/1999/xlink" version="1.1" width="240" height="240" viewBox="0 0 240 240" xml:space="preserve">
<desc>Created with Fabric.js 5.3.0</desc>
<defs>
</defs>
<g transform="matrix(1 0 0 1 120 120)" id="ImrNKEbHccBZ2sb2XlrvA"  >
<g style=""   >
		<g transform="matrix(0.6425396446 0 0 0.6425396426 -60 -60)" id="SJiZOm2dauVIa4ODGwIDW"  >
<path style="stroke: rgb(202,245,45); stroke-width: 0; stroke-dasharray: none; stroke-linecap: butt; stroke-dashoffset: 0; stroke-linejoin: miter; stroke-miterlimit: 4; fill: rgb(242,242,242); fill-rule: nonzero; opacity: 1;"  transform=" translate(0, 0)" d="M -77.81621 -44.80159 C -77.81621 -53.55761 -74.33789 -61.95501 -68.14645 -68.14645 C -61.95501 -74.33789 -53.557610000000004 -77.81621 -44.801590000000004 -77.81621 L 44.80158999999999 -77.81621 L 44.80158999999999 -77.81621 C 53.55760999999999 -77.81621 61.95500999999999 -74.33789 68.14644999999999 -68.14645 C 74.33788999999999 -61.95501 77.81620999999998 -53.557610000000004 77.81620999999998 -44.801590000000004 L 77.81620999999998 44.80158999999999 L 77.81620999999998 44.80158999999999 C 77.81620999999998 63.03505999999999 63.03505999999999 77.81620999999998 44.80158999999998 77.81620999999998 L -44.80159000000001 77.81620999999998 L -44.80159000000001 77.81620999999998 C -63.035060000000016 77.81620999999998 -77.81621000000001 63.03505999999999 -77.81621000000001 44.80158999999998 z" stroke-linecap="round" />
</g>
		<g transform="matrix(0.6425396446 0 0 0.6425396426 59.9999999175 60.0000002381)" id="FvCLoRZrzmXzwiAzXCJ4u"  >
<path style="stroke: rgb(202,245,45); stroke-width: 0; stroke-dasharray: none; stroke-linecap: butt; stroke-dashoffset: 0; stroke-linejoin: miter; stroke-miterlimit: 4; fill: rgb(242,242,242); fill-rule: nonzero; opacity: 1;"  transform=" translate(0, 0)" d="M -77.81621 -44.80159 C -77.81621 -53.55761 -74.33789 -61.95501 -68.14645 -68.14645 C -61.95501 -74.33789 -53.557610000000004 -77.81621 -44.801590000000004 -77.81621 L 44.80158999999999 -77.81621 L 44.80158999999999 -77.81621 C 53.55760999999999 -77.81621 61.95500999999999 -74.33789 68.14644999999999 -68.14645 C 74.33788999999999 -61.95501 77.81620999999998 -53.557610000000004 77.81620999999998 -44.801590000000004 L 77.81620999999998 44.80158999999999 L 77.81620999999998 44.80158999999999 C 77.81620999999998 63.03505999999999 63.03505999999999 77.81620999999998 44.80158999999998 77.81620999999998 L -44.80159000000001 77.81620999999998 L -44.80159000000001 77.81620999999998 C -63.035060000000016 77.81620999999998 -77.81621000000001 63.03505999999999 -77.81621000000001 44.80158999999998 z" stroke-linecap="round" />
</g>
		<g transform="matrix(2.024 0 0 2.024 60 -60)" id="WSjl3ErosLXBBgbdTJvA4"  >
<path style="stroke: rgb(179,67,153); stroke-width: 0; stroke-dasharray: none; stroke-linecap: butt; stroke-dashoffset: 0; stroke-linejoin: miter; stroke-miterlimit: 4; fill: rgb(242,242,242); fill-rule: nonzero; opacity: 1;"  transform=" translate(0, 0)" d="M 0 -24.70356 C 13.63636 -24.70356 24.70356 -13.63637 24.70356 0 C 24.70356 13.63636 13.63637 24.70356 0 24.70356 C -13.63636 24.70356 -24.70356 13.63637 -24.70356 0 C -24.70356 -13.63636 -13.63637 -24.70356 0 -24.70356 z" stroke-linecap="round" />
</g>
		<g transform="matrix(2.024 0 0 2.024 -59.99999456 59.99999456)" id="doW_xwUyqxLYEQhWYGE4m"  >
<path style="stroke: rgb(179,67,153); stroke-width: 0; stroke-dasharray: none; stroke-linecap: butt; stroke-dashoffset: 0; stroke-linejoin: miter; stroke-miterlimit: 4; fill: rgb(242,242,242); fill-rule: nonzero; opacity: 1;"  transform=" translate(0, 0)" d="M 0 -24.70356 C 13.63636 -24.70356 24.70356 -13.63637 24.70356 0 C 24.70356 13.63636 13.63637 24.70356 0 24.70356 C -13.63636 24.70356 -24.70356 13.63637 -24.70356 0 C -24.70356 -13.63636 -13.63637 -24.70356 0 -24.70356 z" stroke-linecap="round" />
</g>
</g>
</g>
</svg>